HIERARCHY
ROOT mixamorig1:Hips
{
	OFFSET 0.000000 92.944595 0.000000
	CHANNELS 6 Xposition Yposition Zposition Xrotation Yrotation Zrotation
	JOINT mixamorig1:Spine
	{
		OFFSET 0.000000 10.433502 -0.333000
		CHANNELS 3 Xrotation Yrotation Zrotation
		JOINT mixamorig1:Spine1
		{
			OFFSET 0.000000 12.172409 -0.388467
			CHANNELS 3 Xrotation Yrotation Zrotation
			JOINT mixamorig1:Spine2
			{
				OFFSET 0.000000 13.911316 -0.443962
				CHANNELS 3 Xrotation Yrotation Zrotation
				JOINT mixamorig1:Neck
				{
					OFFSET 0.000000 15.650330 -0.499460
					CHANNELS 3 Xrotation Yrotation Zrotation
					JOINT mixamorig1:Head
					{
						OFFSET 0.000000 5.519806 1.521600
						CHANNELS 3 Xrotation Yrotation Zrotation
						JOINT mixamorig1:HeadTop_End
						{
							OFFSET 0.000000 21.567795 5.945400
							CHANNELS 3 Xrotation Yrotation Zrotation
							End Site
							{
								OFFSET 0.000000 22.372253 0.000000
							}
						}
					}
				}
				JOINT mixamorig1:LeftShoulder
				{
					OFFSET 5.431600 13.664551 -0.514326
					CHANNELS 3 Xrotation Yrotation Zrotation
					JOINT mixamorig1:LeftArm
					{
						OFFSET 10.896025 -3.900330 -0.029793
						CHANNELS 3 Xrotation Yrotation Zrotation
						JOINT mixamorig1:LeftForeArm
						{
							OFFSET 24.881104 0.000015 0.000000
							CHANNELS 3 Xrotation Yrotation Zrotation
							JOINT mixamorig1:LeftHand
							{
								OFFSET 22.734600 0.000000 0.000001
								CHANNELS 3 Xrotation Yrotation Zrotation
								JOINT mixamorig1:LeftHandThumb1
								{
									OFFSET 3.191261 -1.879669 2.247603
									CHANNELS 3 Xrotation Yrotation Zrotation
									JOINT mixamorig1:LeftHandThumb2
									{
										OFFSET 2.684685 -1.550003 1.550004
										CHANNELS 3 Xrotation Yrotation Zrotation
										JOINT mixamorig1:LeftHandThumb3
										{
											OFFSET 2.420029 -1.397202 1.397203
											CHANNELS 3 Xrotation Yrotation Zrotation
											JOINT mixamorig1:LeftHandThumb4
											{
												OFFSET 1.816750 -1.048904 1.048899
												CHANNELS 3 Xrotation Yrotation Zrotation
												End Site
												{
													OFFSET 1.709686 -1.046646 1.217559
												}
											}
										}
									}
								}
								JOINT mixamorig1:LeftHandIndex1
								{
									OFFSET 9.837479 -0.380814 2.182474
									CHANNELS 3 Xrotation Yrotation Zrotation
									JOINT mixamorig1:LeftHandIndex2
									{
										OFFSET 2.981316 0.000000 0.000000
										CHANNELS 3 Xrotation Yrotation Zrotation
										JOINT mixamorig1:LeftHandIndex3
										{
											OFFSET 2.742516 0.000000 0.000000
											CHANNELS 3 Xrotation Yrotation Zrotation
											JOINT mixamorig1:LeftHandIndex4
											{
												OFFSET 2.337868 0.000000 0.000000
												CHANNELS 3 Xrotation Yrotation Zrotation
												End Site
												{
													OFFSET 2.337791 0.001129 -0.017564
												}
											}
										}
									}
								}
								JOINT mixamorig1:LeftHandMiddle1
								{
									OFFSET 9.935951 0.000000 0.000000
									CHANNELS 3 Xrotation Yrotation Zrotation
									JOINT mixamorig1:LeftHandMiddle2
									{
										OFFSET 3.180130 0.000000 0.000000
										CHANNELS 3 Xrotation Yrotation Zrotation
										JOINT mixamorig1:LeftHandMiddle3
										{
											OFFSET 3.081024 0.000000 0.000000
											CHANNELS 3 Xrotation Yrotation Zrotation
											JOINT mixamorig1:LeftHandMiddle4
											{
												OFFSET 2.550125 0.000000 0.000000
												CHANNELS 3 Xrotation Yrotation Zrotation
												End Site
												{
													OFFSET 2.549995 0.001266 -0.025468
												}
											}
										}
									}
								}
								JOINT mixamorig1:LeftHandRing1
								{
									OFFSET 9.697311 -0.048691 -2.237280
									CHANNELS 3 Xrotation Yrotation Zrotation
									JOINT mixamorig1:LeftHandRing2
									{
										OFFSET 2.903305 0.000000 0.000000
										CHANNELS 3 Xrotation Yrotation Zrotation
										JOINT mixamorig1:LeftHandRing3
										{
											OFFSET 2.800827 0.000000 0.000000
											CHANNELS 3 Xrotation Yrotation Zrotation
											JOINT mixamorig1:LeftHandRing4
											{
												OFFSET 2.301910 0.000000 0.000000
												CHANNELS 3 Xrotation Yrotation Zrotation
												End Site
												{
													OFFSET 2.301903 0.000336 -0.006091
												}
											}
										}
									}
								}
								JOINT mixamorig1:LeftHandPinky1
								{
									OFFSET 8.717087 -0.351471 -4.014757
									CHANNELS 3 Xrotation Yrotation Zrotation
									JOINT mixamorig1:LeftHandPinky2
									{
										OFFSET 2.758202 0.000000 0.000000
										CHANNELS 3 Xrotation Yrotation Zrotation
										JOINT mixamorig1:LeftHandPinky3
										{
											OFFSET 2.317932 0.000000 0.000000
											CHANNELS 3 Xrotation Yrotation Zrotation
											JOINT mixamorig1:LeftHandPinky4
											{
												OFFSET 2.048546 0.000000 0.000000
												CHANNELS 3 Xrotation Yrotation Zrotation
												End Site
												{
													OFFSET 2.048508 0.000931 -0.014069
												}
											}
										}
									}
								}
							}
						}
					}
				}
				JOINT mixamorig1:RightShoulder
				{
					OFFSET -5.431600 13.664597 -0.484512
					CHANNELS 3 Xrotation Yrotation Zrotation
					JOINT mixamorig1:RightArm
					{
						OFFSET -10.896008 -3.900375 0.029802
						CHANNELS 3 Xrotation Yrotation Zrotation
						JOINT mixamorig1:RightForeArm
						{
							OFFSET -24.881804 0.000000 0.000001
							CHANNELS 3 Xrotation Yrotation Zrotation
							JOINT mixamorig1:RightHand
							{
								OFFSET -22.722000 0.000000 0.000001
								CHANNELS 3 Xrotation Yrotation Zrotation
								JOINT mixamorig1:RightHandThumb1
								{
									OFFSET -3.246620 -1.845535 2.326807
									CHANNELS 3 Xrotation Yrotation Zrotation
									JOINT mixamorig1:RightHandThumb2
									{
										OFFSET -2.726646 -1.574234 1.574229
										CHANNELS 3 Xrotation Yrotation Zrotation
										JOINT mixamorig1:RightHandThumb3
										{
											OFFSET -2.400719 -1.386047 1.386055
											CHANNELS 3 Xrotation Yrotation Zrotation
											JOINT mixamorig1:RightHandThumb4
											{
												OFFSET -1.859764 -1.073730 1.073734
												CHANNELS 3 Xrotation Yrotation Zrotation
												End Site
												{
													OFFSET -1.723457 -1.070816 1.283575
												}
											}
										}
									}
								}
								JOINT mixamorig1:RightHandIndex1
								{
									OFFSET -9.742714 -0.295593 2.166874
									CHANNELS 3 Xrotation Yrotation Zrotation
									JOINT mixamorig1:RightHandIndex2
									{
										OFFSET -2.952705 0.000000 0.000000
										CHANNELS 3 Xrotation Yrotation Zrotation
										JOINT mixamorig1:RightHandIndex3
										{
											OFFSET -2.804001 0.000000 0.000000
											CHANNELS 3 Xrotation Yrotation Zrotation
											JOINT mixamorig1:RightHandIndex4
											{
												OFFSET -2.358902 0.000000 0.000000
												CHANNELS 3 Xrotation Yrotation Zrotation
												End Site
												{
													OFFSET -2.358902 -0.000183 0.003595
												}
											}
										}
									}
								}
								JOINT mixamorig1:RightHandMiddle1
								{
									OFFSET -9.949402 0.000000 0.000001
									CHANNELS 3 Xrotation Yrotation Zrotation
									JOINT mixamorig1:RightHandMiddle2
									{
										OFFSET -3.151810 0.000000 0.000000
										CHANNELS 3 Xrotation Yrotation Zrotation
										JOINT mixamorig1:RightHandMiddle3
										{
											OFFSET -3.078247 0.000000 0.000000
											CHANNELS 3 Xrotation Yrotation Zrotation
											JOINT mixamorig1:RightHandMiddle4
											{
												OFFSET -2.625900 0.000000 0.000000
												CHANNELS 3 Xrotation Yrotation Zrotation
												End Site
												{
													OFFSET -2.625801 0.000916 -0.023081
												}
											}
										}
									}
								}
								JOINT mixamorig1:RightHandRing1
								{
									OFFSET -9.698112 -0.103531 -2.110931
									CHANNELS 3 Xrotation Yrotation Zrotation
									JOINT mixamorig1:RightHandRing2
									{
										OFFSET -2.934059 0.000000 0.000000
										CHANNELS 3 Xrotation Yrotation Zrotation
										JOINT mixamorig1:RightHandRing3
										{
											OFFSET -2.787727 0.000000 0.000000
											CHANNELS 3 Xrotation Yrotation Zrotation
											JOINT mixamorig1:RightHandRing4
											{
												OFFSET -2.375610 0.000000 0.000000
												CHANNELS 3 Xrotation Yrotation Zrotation
												End Site
												{
													OFFSET -2.375603 -0.000320 0.006192
												}
											}
										}
									}
								}
								JOINT mixamorig1:RightHandPinky1
								{
									OFFSET -8.583847 -0.242157 -4.009416
									CHANNELS 3 Xrotation Yrotation Zrotation
									JOINT mixamorig1:RightHandPinky2
									{
										OFFSET -2.913101 0.000000 0.000000
										CHANNELS 3 Xrotation Yrotation Zrotation
										JOINT mixamorig1:RightHandPinky3
										{
											OFFSET -2.343506 0.000000 0.000000
											CHANNELS 3 Xrotation Yrotation Zrotation
											JOINT mixamorig1:RightHandPinky4
											{
												OFFSET -1.963608 0.000000 0.000000
												CHANNELS 3 Xrotation Yrotation Zrotation
												End Site
												{
													OFFSET -1.963600 0.000290 -0.005993
												}
											}
										}
									}
								}
							}
						}
					}
				}
			}
		}
	}
	JOINT mixamorig1:LeftUpLeg
	{
		OFFSET 9.709800 -5.795303 0.023700
		CHANNELS 3 Xrotation Yrotation Zrotation
		JOINT mixamorig1:LeftLeg
		{
			OFFSET 0.639935 -42.299309 -1.570667
			CHANNELS 3 Xrotation Yrotation Zrotation
			JOINT mixamorig1:LeftFoot
			{
				OFFSET -0.639926 -35.674927 -1.162552
				CHANNELS 3 Xrotation Yrotation Zrotation
				JOINT mixamorig1:LeftToeBase
				{
					OFFSET 1.230118 -8.781649 11.850578
					CHANNELS 3 Xrotation Yrotation Zrotation
					JOINT mixamorig1:LeftToe_End
					{
						OFFSET 0.717142 -0.083041 6.275008
						CHANNELS 3 Xrotation Yrotation Zrotation
						End Site
						{
							OFFSET 0.717142 -0.083041 6.275007
						}
					}
				}
			}
		}
	}
	JOINT mixamorig1:RightUpLeg
	{
		OFFSET -9.709800 -5.795303 0.149900
		CHANNELS 3 Xrotation Yrotation Zrotation
		JOINT mixamorig1:RightLeg
		{
			OFFSET -0.639923 -42.299263 -1.590850
			CHANNELS 3 Xrotation Yrotation Zrotation
			JOINT mixamorig1:RightFoot
			{
				OFFSET 0.639915 -35.674904 -1.566442
				CHANNELS 3 Xrotation Yrotation Zrotation
				JOINT mixamorig1:RightToeBase
				{
					OFFSET -1.230160 -8.781725 12.359274
					CHANNELS 3 Xrotation Yrotation Zrotation
					JOINT mixamorig1:RightToe_End
					{
						OFFSET -0.717155 -0.083075 6.338317
						CHANNELS 3 Xrotation Yrotation Zrotation
						End Site
						{
							OFFSET -0.717155 -0.083075 6.338316
						}
					}
				}
			}
		}
	}
}
MOTION
Frames: 4
Frame Time: 0.033333
0.347662 92.335182 -0.205636 -3.753698 -5.230892 -3.331982 3.316973 1.533319 2.315031 1.162843 0.340799 1.562140 1.137153 0.363604 1.557407 5.626311 -0.078963 0.451939 5.621583 -0.099934 0.492377 -0.000000 0.000000 0.000000 1.050454 -17.442288 -12.319404 3.911602 -19.980007 -69.768784 -0.000011 -1.459358 -0.000002 -33.230387 -1.364775 -6.186717 -0.663009 2.160320 4.832490 11.864109 25.422512 17.056948 -13.813959 3.537258 9.035986 -0.000002 0.000003 0.000003 0.020288 -0.966413 -7.593204 0.267556 1.751858 -17.365085 0.057546 0.819943 -8.028003 -0.000000 0.000001 -0.000001 -0.076298 2.665776 -15.696835 0.268790 1.755805 -17.405516 0.300541 1.853988 -18.413335 0.000000 -0.000001 -0.000000 0.138293 3.645296 -21.133237 0.386626 2.094787 -20.911898 0.283037 1.800637 -17.865004 0.000000 0.000000 -0.000003 0.926082 5.556773 -27.127877 0.268797 1.755837 -17.405883 0.241916 1.667700 -16.505871 -0.000000 -0.000000 -0.000003 1.205901 15.344290 14.705139 13.158873 27.555124 58.785150 -0.000005 6.693728 -0.000008 -20.179090 -0.514090 6.782836 -1.655320 -0.173861 -4.218582 12.714115 -29.825612 -16.130832 -15.548924 -3.560179 -12.705059 -0.000002 -0.000001 0.000002 0.036554 1.262063 6.823615 0.213723 -1.396028 17.407027 0.046036 -0.653849 8.053210 0.000001 -0.000001 -0.000000 -0.136226 -2.205098 14.998902 0.214452 -1.398343 17.436860 0.239762 -1.476523 18.446254 -0.000001 -0.000002 -0.000005 0.030603 -3.075753 20.451034 0.308446 -1.668280 20.948537 0.225836 -1.434049 17.897097 0.000001 0.000001 -0.000002 0.743113 -4.888103 26.473337 0.214459 -1.398379 17.437227 0.193005 -1.328182 16.535833 0.000001 0.000000 0.000004 -11.087335 14.684760 10.339413 14.203223 2.006744 4.200773 -0.325463 0.653763 -7.542626 -4.939512 -0.000006 0.000003 0.000000 0.000000 -0.000000 2.824639 -10.256010 3.339140 3.620775 -9.722429 -3.274573 -2.163364 -1.571950 3.084238 -7.282872 -0.000005 -0.000003 0.000001 0.000001 -0.000000 
0.381855 92.314682 -0.097414 -3.597641 -5.264129 -3.357503 3.316988 1.533320 2.314211 1.162842 0.340798 1.562140 1.137153 0.363603 1.557408 5.574784 -0.078963 0.451939 5.569799 -0.099934 0.492376 0.000001 -0.000000 0.000000 1.050703 -17.487634 -12.286726 3.889989 -19.987218 -69.780634 -0.000022 -1.493282 -0.000004 -33.240666 -1.367482 -6.186830 -0.581839 2.204973 4.795464 11.851256 25.399655 17.104720 -13.840526 3.558835 9.054107 0.000003 -0.000001 0.000005 0.049517 -0.956818 -7.673099 0.267548 1.751854 -17.365107 0.057543 0.819937 -8.028015 -0.000000 0.000001 -0.000001 -0.077543 2.667939 -15.773296 0.268368 1.754443 -17.391489 0.300080 1.852607 -18.399215 -0.000000 -0.000000 0.000002 0.138182 3.644856 -21.128862 0.386630 2.094779 -20.911908 0.283044 1.800645 -17.865010 -0.000000 -0.000001 -0.000002 0.942345 5.588001 -27.143505 0.265654 1.745732 -17.302435 0.238759 1.657034 -16.397273 0.000000 0.000000 -0.000001 1.203264 15.353939 14.705851 13.197020 27.614289 58.689678 0.000004 6.775213 0.000011 -20.265065 -0.488048 6.810911 -1.658044 -0.147752 -4.194068 12.704994 -29.822853 -16.132106 -15.551098 -3.547568 -12.702272 -0.000001 -0.000002 -0.000003 0.038106 1.264129 6.798352 0.213750 -1.396032 17.407029 0.046005 -0.653833 8.053225 -0.000000 -0.000000 0.000000 -0.135065 -2.202493 14.921021 0.214290 -1.397850 17.430631 0.239624 -1.476046 18.440029 -0.000000 -0.000001 -0.000001 0.036488 -3.089150 20.395657 0.307921 -1.666902 20.930312 0.225372 -1.432643 17.879089 0.000001 -0.000003 -0.000002 0.741519 -4.885687 26.438353 0.213965 -1.396820 17.417213 0.192547 -1.326566 16.515041 0.000001 -0.000000 0.000000 -11.345127 14.663074 10.396876 14.579459 2.037982 4.200806 -0.659097 0.658937 -7.538771 -4.939521 -0.000009 0.000001 0.000000 0.000000 -0.000000 2.566426 -10.254481 3.305822 3.985180 -9.736874 -3.247515 -2.413130 -1.568395 3.152664 -7.299204 0.000008 0.000002 -0.000000 -0.000002 -0.000000 
0.416615 92.282661 0.019981 -3.431984 -5.292834 -3.386358 3.316985 1.533304 2.314403 1.162843 0.345985 1.562140 1.137153 0.363603 1.559563 5.522860 -0.078964 0.451940 5.517643 -0.099934 0.492377 0.000001 0.000000 -0.000000 1.051079 -17.538565 -12.249864 3.877248 -19.996685 -69.800162 -0.000002 -1.547633 -0.000026 -33.290701 -1.393555 -6.176576 -0.473362 2.193480 4.693265 11.834088 25.357298 17.186429 -13.861774 3.585581 9.051834 0.000001 0.000001 0.000003 0.099669 -0.958782 -7.586140 0.267541 1.751851 -17.365097 0.057547 0.819936 -8.028010 -0.000001 0.000000 -0.000001 -0.063894 2.703804 -15.619191 0.268300 1.754241 -17.389482 0.300006 1.852412 -18.397156 0.000001 0.000001 0.000000 0.137717 3.642840 -21.108884 0.387395 2.096753 -20.932435 0.283610 1.802424 -17.883358 0.000000 -0.000001 -0.000000 0.960418 5.620041 -27.268157 0.267085 1.750404 -17.350362 0.240077 1.661459 -16.442157 0.000001 -0.000001 -0.000002 1.200492 15.402346 14.719963 13.294371 27.659618 58.534626 0.000008 6.910927 -0.000008 -20.424181 -0.412044 6.810057 -1.656007 -0.178152 -4.196897 12.654262 -29.723668 -16.146391 -15.537214 -3.575962 -12.718515 -0.000000 -0.000001 0.000002 0.051524 1.297442 6.558447 0.213741 -1.396034 17.407041 0.046013 -0.653834 8.053220 -0.000002 0.000001 0.000001 -0.128110 -2.200599 14.605391 0.213756 -1.396145 17.408489 0.239048 -1.474320 18.417839 -0.000002 0.000002 0.000002 0.041260 -3.092219 20.169219 0.305205 -1.659832 20.837546 0.223070 -1.425471 17.786547 0.000000 -0.000000 0.000002 0.726191 -4.860151 26.195778 0.213434 -1.395108 17.395117 0.192011 -1.324794 16.492419 0.000000 0.000001 0.000001 -11.671469 14.615162 10.471032 15.094194 2.078856 4.200803 -1.065309 0.671442 -7.530889 -4.939522 0.000015 0.000001 0.000001 -0.000002 -0.000000 2.143537 -10.262597 3.250119 4.699007 -9.759113 -3.227513 -2.847697 -1.580508 3.260600 -7.314020 0.000002 0.000001 0.000000 -0.000001 0.000000 
0.454018 92.240150 0.151365 -3.256136 -5.328019 -3.413457 3.317043 1.536911 2.311685 1.163452 0.353013 1.562140 1.137755 0.367770 1.563696 5.480151 -0.073286 0.451939 5.474712 -0.090534 0.492377 0.000001 0.000000 -0.000000 1.054342 -17.564089 -12.221175 3.900684 -20.055104 -69.809246 -0.000001 -1.629709 0.000000 -33.376775 -1.438871 -6.152508 -0.419446 2.109880 4.580374 11.833819 25.312848 17.239824 -13.860828 3.596503 9.030081 -0.000002 0.000003 0.000001 0.146042 -0.984318 -7.353426 0.267559 1.751859 -17.365087 0.057522 0.819930 -8.028015 -0.000000 0.000000 -0.000002 -0.037899 2.768677 -15.248158 0.268214 1.753978 -17.386778 0.299935 1.852152 -18.394524 -0.000000 -0.000000 -0.000001 0.136730 3.638287 -21.063854 0.389607 2.102547 -20.993102 0.285460 1.808165 -17.942284 0.000001 -0.000000 -0.000001 0.976361 5.644532 -27.527850 0.276758 1.781002 -17.663672 0.249220 1.692166 -16.755238 -0.000000 -0.000000 0.000000 1.196009 15.485967 14.742497 13.488859 27.721612 58.281362 0.000013 7.119144 0.000011 -20.690426 -0.278455 6.786480 -1.639176 -0.265083 -4.235350 12.540536 -29.504269 -16.183408 -15.499562 -3.647095 -12.749167 0.000001 0.000000 0.000007 0.079269 1.349851 6.093003 0.213735 -1.396035 17.407027 0.046017 -0.653841 8.053220 -0.000001 0.000000 -0.000000 -0.114171 -2.210034 14.099776 0.213102 -1.394066 17.381713 0.238341 -1.472241 18.390908 0.000001 -0.000003 -0.000003 0.037422 -3.069236 19.880930 0.304878 -1.658968 20.825921 0.222776 -1.424568 17.774891 0.000000 0.000001 -0.000001 0.700445 -4.814797 25.862062 0.215270 -1.400980 17.470809 0.193731 -1.330573 16.566446 0.000001 -0.000001 0.000001 -12.054913 14.545499 10.556111 15.732352 2.132792 4.200961 -1.515824 0.688351 -7.532948 -4.948342 -0.000001 0.000000 0.000000 -0.000001 -0.000000 1.630991 -10.277921 3.175655 5.601074 -9.764410 -3.209534 -3.390002 -1.587619 3.391385 -7.329506 0.000009 0.000000 0.000001 0.000002 0.000001 
